<svg xmlns="http://www.w3.org/2000/svg" viewBox="0 0 136.94 168.44"><defs><style>.cls-1{fill:#603813;}.cls-2{fill:#efcaa6;}</style></defs><title>Asset 3</title><g id="Layer_2" data-name="Layer 2"><g id="objects"><path class="cls-1" d="M127,59.09A12.17,12.17,0,0,0,124.77,35a12,12,0,0,0-1.53.15A24,24,0,0,0,81.9,11.79,34.9,34.9,0,0,0,21.72,27.15a24,24,0,0,0-8.61,45.28A12.13,12.13,0,1,0,19.93,95.7a19.68,19.68,0,0,0,24.18,28.94A13.23,13.23,0,0,0,70.26,127a17.65,17.65,0,0,0,32.51-9.55c0-.54-.11-1-.16-1.57a13.21,13.21,0,0,0,15.6-21.17A19.6,19.6,0,0,0,127,59.09Z"/><path class="cls-2" d="M82,113.48c14.35-5.41,24.78-21.71,24.78-41,0-23.69-15.76-42.89-35.2-42.89S36.34,48.82,36.34,72.51c0,19.27,10.42,35.56,24.78,41C62,124,60,151,16.19,153.57a3,3,0,0,0-1.12,5.7c9.95,4.84,31.49,9.17,56.46,9.17s46.52-4.33,56.46-9.17a3,3,0,0,0-1.12-5.7C83.11,151,81.07,124,82,113.48Z"/><path class="cls-1" d="M36.38,70.59s7-14.49,6.42-22.85c0,0,1.69,3.71,15.18,9.22A24,24,0,0,1,49.88,41S57.41,54.69,81,60.2c0,0-17.67-10.07-21.18-26,0,0,8.33,13.36,28,21.48,18.29,7.55,19,32.52,16.37,40.26l7.17-18.2-3.56-38.8-45.83-18-30.16,23,1.33,26.6Z"/></g></g></svg>