<svg xmlns="http://www.w3.org/2000/svg" viewBox="0 0 116.34 168.49"><defs><style>.cls-1{fill:#603813;}.cls-2{fill:#efcaa6;}</style></defs><title>Asset 1</title><g id="Layer_2" data-name="Layer 2"><g id="objects"><path class="cls-1" d="M57.34,4.19s22-17.86,47.12,20.14-11,79.62-32.68,89.34c-6.59,3-22.14,2.57-28.89,0-22.23-8.45-57.76-51.34-32.68-89.34S57.34,4.19,57.34,4.19Z"/><path class="cls-2" d="M68.59,113.53c14.35-5.41,24.77-21.71,24.77-41,0-23.69-15.76-42.89-35.2-42.89S23,48.87,23,72.55c0,19.27,10.42,35.56,24.78,41,.89,10.52-1.15,37.51-44.92,40.09a3,3,0,0,0-1.12,5.7c9.95,4.84,31.49,9.17,56.46,9.17s46.52-4.33,56.46-9.17a3,3,0,0,0-1.12-5.7C69.74,151,67.7,124.05,68.59,113.53Z"/><path class="cls-1" d="M23,61.74c37.14,0,49.83-28.18,49.83-28.18S78.9,61.74,93.4,61.74h3.15l-4.9-45H25.5L9,61.74Z"/></g></g></svg>