<svg xmlns="http://www.w3.org/2000/svg" viewBox="0 0 116.34 168.49"><defs><style>.cls-1{fill:#603813;}.cls-2{fill:#efcaa6;}</style></defs><title>Asset 2</title><g id="Layer_2" data-name="Layer 2"><g id="objects"><path class="cls-1" d="M103,94.73c-1.14-15.67,5.7-21.38,8.55-37.06C113.87,45,109.15,32.4,107.25,28a20.41,20.41,0,0,0-2-3.7C80.22-13.67,58.17,4.19,58.17,4.19S36.12-13.67,11,24.33a20.41,20.41,0,0,0-2,3.7C7.19,32.4,2.47,45,4.77,57.67c2.85,15.67,9.69,21.39,8.55,37.06s-15.67,18.52-11.4,35.33,16.81,14.82,18.52,34.48H95.89c1.71-19.66,14.25-17.67,18.52-34.48S104.16,110.4,103,94.73Z"/><path class="cls-2" d="M68.59,113.53c14.35-5.41,24.78-21.71,24.78-41,0-23.69-15.76-42.89-35.2-42.89S23,48.87,23,72.55c0,19.27,10.42,35.56,24.78,41,.89,10.52-1.15,37.51-44.92,40.09a3,3,0,0,0-1.12,5.7c9.95,4.84,31.49,9.17,56.46,9.17s46.52-4.33,56.46-9.17a3,3,0,0,0-1.12-5.7C69.74,151,67.7,124.05,68.59,113.53Z"/><path class="cls-1" d="M23,61.74c37.14,0,49.83-28.18,49.83-28.18S78.9,61.74,93.4,61.74h12.27l-9.46-45H25.5L9,61.74Z"/></g></g></svg>